<?xml version="1.0" encoding="utf-8"?>
<!-- Generator: Adobe Illustrator 16.0.0, SVG Export Plug-In . SVG Version: 6.00 Build 0)  -->
<!DOCTYPE svg PUBLIC "-//W3C//DTD SVG 1.1//EN" "http://www.w3.org/Graphics/SVG/1.1/DTD/svg11.dtd">
<svg version="1.1" id="Layer_1" xmlns="http://www.w3.org/2000/svg" xmlns:xlink="http://www.w3.org/1999/xlink" x="0px" y="0px"
	 width="1000px" height="1000px" viewBox="-35.714 0 1000 1000" enable-background="new -35.714 0 1000 1000" xml:space="preserve">
<path d="M803.52,250.048c0-14.88-5.207-27.528-15.623-37.944s-23.064-15.624-37.945-15.624c-14.879,0-27.527,5.208-37.943,15.624
	s-15.625,23.064-15.625,37.944c0,14.88,5.209,27.528,15.625,37.944s23.064,15.624,37.943,15.624
	c14.881,0,27.529-5.208,37.945-15.624S803.52,264.928,803.52,250.048z M928.512,89.344c0,92.628-14.043,172.701-42.129,240.219
	S811.147,464.134,744.93,530.722c-30.133,29.761-66.402,62.496-108.811,98.208l-11.16,211.482
	c-0.744,5.952-3.719,10.788-8.928,14.508L401.76,979.912c-2.604,1.488-5.58,2.231-8.928,2.231c-4.464,0-8.742-1.674-12.834-5.021
	l-35.712-35.712c-4.836-5.208-6.324-11.16-4.464-17.856l47.43-154.008L230.454,612.748l-154.008,47.43
	c-1.116,0.372-2.79,0.559-5.022,0.559c-5.208,0-9.486-1.675-12.834-5.022l-35.712-35.712c-6.324-7.067-7.254-14.322-2.79-21.762
	L145.08,383.968c3.72-5.208,8.556-8.184,14.508-8.928l211.482-11.16c35.712-42.408,68.447-78.678,98.208-108.81
	c69.936-69.564,136.523-117.552,199.764-143.964S812.448,71.488,909.54,71.488c5.209,0,9.672,1.767,13.393,5.301
	S928.512,84.508,928.512,89.344L928.512,89.344z"/>
</svg>
